<?xml version="1.0" encoding="UTF-8"?>
<svg width="128px" height="126px" viewBox="0 0 128 126" version="1.1" xmlns="http://www.w3.org/2000/svg" xmlns:xlink="http://www.w3.org/1999/xlink">
    <!-- Generator: Sketch 42 (36781) - http://www.bohemiancoding.com/sketch -->
    <title>noun_749811_cc</title>
    <desc>Created with Sketch.</desc>
    <defs></defs>
    <g id="Page-1" stroke="none" stroke-width="1" fill="none" fill-rule="evenodd">
        <g id="noun_749811_cc" fill-rule="nonzero" fill="#000000">
            <g id="Group">
                <path d="M40.7,110.3 L17.4,110.3 L17.4,87 C17.4,86.6 17.1,86.3 16.7,86.3 C16.3,86.3 16,86.6 16,87 L16,111 C16,111.4 16.3,111.7 16.7,111.7 L40.7,111.7 C41.1,111.7 41.4,111.4 41.4,111 C41.4,110.6 41.1,110.3 40.7,110.3 Z" id="Shape"></path>
                <path d="M88.8,15.6 L112.1,15.6 L112.1,38.9 C112.1,39.3 112.4,39.6 112.8,39.6 C113.2,39.6 113.5,39.3 113.5,38.9 L113.5,14.9 C113.5,14.5 113.2,14.2 112.8,14.2 L88.8,14.2 C88.4,14.2 88.1,14.5 88.1,14.9 C88.1,15.3 88.4,15.6 88.8,15.6 Z" id="Shape"></path>
                <path d="M113.6,111 L113.6,87 C113.6,86.6 113.3,86.3 112.9,86.3 C112.5,86.3 112.2,86.6 112.2,87 L112.2,110.3 L88.8,110.3 C88.4,110.3 88.1,110.6 88.1,111 C88.1,111.4 88.4,111.7 88.8,111.7 L112.8,111.7 C113.2,111.8 113.6,111.4 113.6,111 Z" id="Shape"></path>
                <path d="M16,14.9 L16,38.9 C16,39.3 16.3,39.6 16.7,39.6 C17.1,39.6 17.4,39.3 17.4,38.9 L17.4,15.6 L40.7,15.6 C41.1,15.6 41.4,15.3 41.4,14.9 C41.4,14.5 41.1,14.2 40.7,14.2 L16.7,14.2 C16.3,14.2 16,14.5 16,14.9 Z" id="Shape"></path>
                <path d="M126.8,73.4 C126.4,73.4 126.1,73.7 126.1,74.1 L126.1,85.3 C126.1,85.7 126.4,86 126.8,86 C127.2,86 127.5,85.7 127.5,85.3 L127.5,74.1 C127.5,73.7 127.2,73.4 126.8,73.4 Z" id="Shape"></path>
                <path d="M126.8,88.3 C126.4,88.3 126.1,88.6 126.1,89 L126.1,92.6 C126.1,93 126.4,93.3 126.8,93.3 C127.2,93.3 127.5,93 127.5,92.6 L127.5,89 C127.5,88.6 127.2,88.3 126.8,88.3 Z" id="Shape"></path>
                <path d="M5.6,46.4 C5.2,46.4 4.9,46.7 4.9,47.1 L4.9,58.3 C4.9,58.7 5.2,59 5.6,59 C6,59 6.3,58.7 6.3,58.3 L6.3,47.1 C6.3,46.7 6,46.4 5.6,46.4 Z" id="Shape"></path>
                <path d="M5.6,61.3 C5.2,61.3 4.9,61.6 4.9,62 L4.9,65.6 C4.9,66 5.2,66.3 5.6,66.3 C6,66.3 6.3,66 6.3,65.6 L6.3,62 C6.3,61.6 6,61.3 5.6,61.3 Z" id="Shape"></path>
                <path d="M120.7,4.3 C120.8,4.4 121,4.5 121.2,4.5 C121.4,4.5 121.6,4.4 121.7,4.3 C122,4 122,3.5 121.7,3.3 L120,1.6 C119.7,1.3 119.2,1.3 119,1.6 C118.7,1.9 118.7,2.4 119,2.6 L120.7,4.3 Z" id="Shape"></path>
                <path d="M125.6,7.1 C125.3,6.8 124.8,6.8 124.6,7.1 C124.4,7.4 124.3,7.9 124.6,8.1 L126.3,9.8 C126.4,9.9 126.6,10 126.8,10 C127,10 127.2,9.9 127.3,9.8 C127.6,9.5 127.6,9 127.3,8.8 L125.6,7.1 Z" id="Shape"></path>
                <path d="M119.5,10.1 C119.7,10.1 119.9,10 120,9.9 L121.7,8.2 C122,7.9 122,7.4 121.7,7.2 C121.4,6.9 120.9,6.9 120.7,7.2 L119,8.8 C118.7,9.1 118.7,9.6 119,9.8 C119.2,10 119.3,10.1 119.5,10.1 Z" id="Shape"></path>
                <path d="M125.1,4.6 C125.3,4.6 125.5,4.5 125.6,4.4 L127.3,2.7 C127.6,2.4 127.6,1.9 127.3,1.7 C127,1.4 126.5,1.4 126.3,1.7 L124.6,3.4 C124.3,3.7 124.3,4.2 124.6,4.4 C124.7,4.5 124.9,4.6 125.1,4.6 Z" id="Shape"></path>
                <path d="M68.5,115 C68.2,114.7 67.7,114.7 67.5,115 C67.2,115.3 67.2,115.8 67.5,116 L69.2,117.7 C69.3,117.8 69.5,117.9 69.7,117.9 C69.9,117.9 70.1,117.8 70.2,117.7 C70.5,117.4 70.5,116.9 70.2,116.7 L68.5,115 Z" id="Shape"></path>
                <path d="M74,120.6 C73.7,120.3 73.2,120.3 73,120.6 C72.7,120.9 72.7,121.4 73,121.6 L74.7,123.3 C74.8,123.4 75,123.5 75.2,123.5 C75.4,123.5 75.6,123.4 75.7,123.3 C76,123 76,122.5 75.7,122.3 L74,120.6 Z" id="Shape"></path>
                <path d="M69.2,120.6 L67.5,122.3 C67.2,122.6 67.2,123.1 67.5,123.3 C67.6,123.4 67.8,123.5 68,123.5 C68.2,123.5 68.4,123.4 68.5,123.3 L70.2,121.6 C70.5,121.3 70.5,120.8 70.2,120.6 C69.9,120.3 69.5,120.3 69.2,120.6 Z" id="Shape"></path>
                <path d="M74.7,115 L73,116.7 C72.7,117 72.7,117.5 73,117.7 C73.1,117.8 73.3,117.9 73.5,117.9 C73.7,117.9 73.9,117.8 74,117.7 L75.7,116 C76,115.7 76,115.2 75.7,115 C75.4,114.8 75,114.8 74.7,115 Z" id="Shape"></path>
                <path d="M2.5,96.1 C2.2,95.8 1.7,95.8 1.5,96.1 C1.2,96.4 1.2,96.9 1.5,97.1 L3.2,98.8 C3.3,98.9 3.5,99 3.7,99 C3.9,99 4.1,98.9 4.2,98.8 C4.5,98.5 4.5,98 4.2,97.8 L2.5,96.1 Z" id="Shape"></path>
                <path d="M8,101.6 C7.7,101.3 7.2,101.3 7,101.6 C6.7,101.9 6.7,102.4 7,102.6 L8.7,104.3 C8.8,104.4 9,104.5 9.2,104.5 C9.4,104.5 9.6,104.4 9.7,104.3 C10,104 10,103.5 9.7,103.3 L8,101.6 Z" id="Shape"></path>
                <path d="M3.2,101.6 L1.5,103.3 C1.2,103.6 1.2,104.1 1.5,104.3 C1.6,104.4 1.8,104.5 2,104.5 C2.2,104.5 2.4,104.4 2.5,104.3 L4.2,102.6 C4.5,102.3 4.5,101.8 4.2,101.6 C3.9,101.3 3.5,101.3 3.2,101.6 Z" id="Shape"></path>
                <path d="M8.7,96.1 L7,97.8 C6.7,98.1 6.7,98.6 7,98.8 C7.1,98.9 7.3,99 7.5,99 C7.7,99 7.9,98.9 8,98.8 L9.7,97.1 C10,96.8 10,96.3 9.7,96.1 C9.4,95.8 9,95.8 8.7,96.1 Z" id="Shape"></path>
                <path d="M31.6,118.4 C29.6,118.4 28,120 28,122 C28,124 29.6,125.6 31.6,125.6 C33.6,125.6 35.2,124 35.2,122 C35.2,120.1 33.5,118.4 31.6,118.4 Z M31.6,124.1 C30.4,124.1 29.5,123.2 29.5,122 C29.5,120.8 30.4,119.9 31.6,119.9 C32.8,119.9 33.7,120.8 33.7,122 C33.7,123.2 32.7,124.1 31.6,124.1 Z" id="Shape"></path>
                <path d="M74.5,11.4 C76.5,11.4 78.1,9.8 78.1,7.8 C78.1,5.8 76.5,4.2 74.5,4.2 C72.5,4.2 70.9,5.8 70.9,7.8 C70.9,9.8 72.5,11.4 74.5,11.4 Z M74.5,5.7 C75.7,5.7 76.6,6.6 76.6,7.8 C76.6,9 75.7,9.9 74.5,9.9 C73.3,9.9 72.4,9 72.4,7.8 C72.4,6.6 73.3,5.7 74.5,5.7 Z" id="Shape"></path>
                <path d="M24.2,5.7 C24.2,5.3 23.9,5 23.5,5 L10,5 C9.6,5 9.3,5.3 9.3,5.7 C9.3,6.1 9.6,6.4 10,6.4 L23.5,6.4 C23.9,6.5 24.2,6.1 24.2,5.7 Z" id="Shape"></path>
                <path d="M5.6,5 L1.2,5 C0.8,5 0.5,5.3 0.5,5.7 C0.5,6.1 0.8,6.4 1.2,6.4 L5.6,6.4 C6,6.4 6.3,6.1 6.3,5.7 C6.3,5.3 6,5 5.6,5 Z" id="Shape"></path>
                <path d="M1.2,1.9 L10.6,1.9 C11,1.9 11.3,1.6 11.3,1.2 C11.3,0.8 11,0.5 10.6,0.5 L1.2,0.5 C0.8,0.5 0.5,0.8 0.5,1.2 C0.5,1.5 0.8,1.9 1.2,1.9 Z" id="Shape"></path>
                <path d="M14.7,1.9 L17.7,1.9 C18.1,1.9 18.4,1.6 18.4,1.2 C18.4,0.8 18.1,0.5 17.7,0.5 L14.7,0.5 C14.3,0.5 14,0.8 14,1.2 C13.9,1.5 14.2,1.9 14.7,1.9 Z" id="Shape"></path>
                <path d="M113.4,119.7 C113.4,119.3 113.1,119 112.7,119 L99.2,119 C98.8,119 98.5,119.3 98.5,119.7 C98.5,120.1 98.8,120.4 99.2,120.4 L112.7,120.4 C113.1,120.5 113.4,120.1 113.4,119.7 Z" id="Shape"></path>
                <path d="M121.4,119 L117,119 C116.6,119 116.3,119.3 116.3,119.7 C116.3,120.1 116.6,120.4 117,120.4 L121.4,120.4 C121.8,120.4 122.1,120.1 122.1,119.7 C122.1,119.3 121.8,119 121.4,119 Z" id="Shape"></path>
                <path d="M121.4,123.6 L112,123.6 C111.6,123.6 111.3,123.9 111.3,124.3 C111.3,124.7 111.6,125 112,125 L121.4,125 C121.8,125 122.1,124.7 122.1,124.3 C122.2,123.9 121.8,123.6 121.4,123.6 Z" id="Shape"></path>
                <path d="M108,123.6 L105,123.6 C104.6,123.6 104.3,123.9 104.3,124.3 C104.3,124.7 104.6,125 105,125 L108,125 C108.4,125 108.7,124.7 108.7,124.3 C108.7,123.9 108.4,123.6 108,123.6 Z" id="Shape"></path>
                <g id="noun_178880_cc" transform="translate(47.236068, 43.000000)">
                    <g id="Group">
                        <g id="Shape">
                            <g>
                                <path d="M21.6428571,39.9791667 L21.6428571,39.9791667 C21.2184874,39.9791667 20.7941176,39.9791667 20.3697479,39.895 C19.8605042,39.8108333 19.2663866,39.7266667 18.7571429,39.4741667 C18.1630252,39.3058333 17.4840336,39.3058333 16.889916,39.4741667 C16.3806723,39.6425 15.8714286,39.8108333 15.2773109,39.895 C14.8529412,39.9791667 14.4285714,39.9791667 14.0042017,39.9791667 C8.14789916,39.9791667 2.63109244,34.4241667 1.18823529,27.1016667 C0.254621849,22.5566667 1.01848739,18.0958333 3.31008403,14.9816667 C4.92268908,12.7933333 7.04453782,11.3625 9.5907563,11.0258333 C11.3731092,10.7733333 13.2403361,11.0258333 15.0226891,11.8675 C16.7201681,12.625 19.0117647,12.625 20.7092437,11.8675 C22.4915966,11.0258333 24.3588235,10.7733333 26.1411765,11.0258333 C28.602521,11.3625 30.8092437,12.7933333 32.4218487,14.9816667 C34.7134454,18.18 35.4773109,22.5566667 34.5436975,27.1016667 C32.9310924,34.4241667 27.4142857,39.9791667 21.6428571,39.9791667 Z M17.8235294,37.6225 C18.3327731,37.6225 18.8420168,37.7066667 19.3512605,37.875 C19.7756303,38.0433333 20.2,38.1275 20.6243697,38.2116667 C20.9638655,38.2958333 21.3033613,38.2958333 21.6428571,38.2958333 C26.6504202,38.2958333 31.4882353,33.33 32.7613445,26.765 C33.610084,22.725 32.8462185,18.685 30.8941176,15.9075 C29.6210084,14.0558333 27.8386555,12.9616667 25.8016807,12.625 C24.3588235,12.4566667 22.8310924,12.625 21.3882353,13.2983333 C19.2663866,14.3083333 16.4655462,14.3083333 14.3436975,13.2983333 C12.9008403,12.625 11.3731092,12.3725 9.9302521,12.625 C7.89327731,12.8775 6.11092437,14.0558333 4.83781513,15.9075 C2.71596639,18.6008333 2.03697479,22.725 2.88571429,26.765 C4.24369748,33.33 8.99663866,38.2958333 14.0042017,38.2958333 C14.3436975,38.2958333 14.6831933,38.2958333 15.0226891,38.2116667 C15.4470588,38.1275 15.8714286,38.0433333 16.2957983,37.875 C16.805042,37.7066667 17.3142857,37.6225 17.8235294,37.6225 Z"></path>
                                <path d="M12.4764706,10.1841667 L12.4764706,10.1841667 C7.80840336,10.1841667 2.97058824,8.24833333 2.80084034,8.16416667 C2.54621849,8.08 2.37647059,7.8275 2.29159664,7.575 C2.20672269,7.23833333 2.37647059,6.98583333 2.54621849,6.8175 C2.80084034,6.565 9.2512605,0.420833333 15.107563,0.420833333 C17.5689076,0.420833333 19.6058824,1.515 21.1336134,3.535 C21.3033613,3.70333333 21.3033613,3.95583333 21.3033613,4.20833333 C20.3697479,8.16416667 17.3142857,10.1841667 12.4764706,10.1841667 Z M4.75294118,7.07 C6.45042017,7.65916667 9.50588235,8.50083333 12.4764706,8.50083333 C16.3806723,8.50083333 18.6722689,7.07 19.5210084,4.2925 C18.3327731,2.86166667 16.889916,2.18833333 15.107563,2.18833333 C11.2033613,2.10416667 6.70504202,5.38666667 4.75294118,7.07 Z"></path>
                                <path d="M17.8235294,13.8033333 L17.8235294,13.8033333 C17.3142857,13.8033333 16.9747899,13.3825 16.9747899,12.9616667 C16.9747899,12.625 17.3142857,4.46083333 23.594958,0.925833333 C24.0193277,0.673333333 24.5285714,0.841666667 24.7831933,1.2625 C25.0378151,1.68333333 24.8680672,2.18833333 24.4436975,2.44083333 C19.0117647,5.47083333 18.6722689,12.8775 18.6722689,12.9616667 C18.6722689,13.4666667 18.2478992,13.8033333 17.8235294,13.8033333 Z"></path>
                            </g>
                            <g transform="translate(11.882353, 21.883333)">
                                <path d="M3.56470588,6.98583333 C2.46134454,6.98583333 1.35798319,5.8075 0.933613445,4.12416667 C0.424369748,2.18833333 1.01848739,0.505 2.29159664,0.168333333 C3.47983193,-0.168333333 4.83781513,1.09416667 5.34705882,3.03 C5.51680672,3.87166667 5.60168067,4.71333333 5.43193277,5.38666667 C5.26218487,6.22833333 4.75294118,6.8175 4.07394958,6.98583333 L3.56470588,6.98583333 Z M2.63109244,1.7675 C2.54621849,1.85166667 2.29159664,2.60916667 2.54621849,3.70333333 C2.80084034,4.71333333 3.39495798,5.3025 3.56470588,5.3025 C3.64957983,5.21833333 3.90420168,4.46083333 3.64957983,3.45083333 C3.39495798,2.35666667 2.80084034,1.7675 2.63109244,1.7675 Z"></path>
                                <path d="M8.31764706,6.98583333 L8.31764706,6.98583333 C8.14789916,6.98583333 8.06302521,6.98583333 7.89327731,6.90166667 C7.21428571,6.73333333 6.70504202,6.14416667 6.53529412,5.3025 C6.36554622,4.62916667 6.36554622,3.7875 6.62016807,2.94583333 C7.12941176,1.01 8.48739496,-0.168333333 9.67563025,0.0841666667 C10.9487395,0.420833333 11.5428571,2.10416667 11.0336134,4.04 C10.5243697,5.8075 9.4210084,6.98583333 8.31764706,6.98583333 Z M9.16638655,1.7675 C8.99663866,1.7675 8.48739496,2.35666667 8.14789916,3.36666667 C7.89327731,4.37666667 8.14789916,5.13416667 8.23277311,5.21833333 C8.40252101,5.13416667 8.99663866,4.62916667 9.2512605,3.61916667 C9.5907563,2.60916667 9.33613445,1.85166667 9.16638655,1.7675 Z"></path>
                            </g>
                        </g>
                    </g>
                </g>
                <path d="M81.2,30.4 C81.8,30.7 82.3,31 82.9,31.3 C83,31.4 83.1,31.4 83.3,31.4 C83.6,31.4 83.8,31.3 83.9,31 C84.1,30.6 84,30.2 83.6,30 C83,29.7 82.4,29.4 81.8,29.1 C81.4,28.9 81,29.1 80.8,29.4 C80.7,29.7 80.9,30.2 81.2,30.4 Z" id="Shape"></path>
                <path d="M75.5,27.3 C75.4,27.7 75.6,28.1 76,28.2 C76.6,28.4 77.2,28.6 77.8,28.8 L78.1,28.8 C78.4,28.8 78.7,28.6 78.8,28.3 C78.9,27.9 78.8,27.5 78.4,27.4 C77.8,27.2 77.2,26.9 76.5,26.7 C76,26.7 75.6,26.9 75.5,27.3 Z" id="Shape"></path>
                <path d="M53.1,28.3 L53.3,28.3 C53.9,28.1 54.5,27.9 55.1,27.8 C55.5,27.7 55.7,27.3 55.6,26.9 C55.5,26.5 55.1,26.3 54.7,26.4 C54.1,26.6 53.4,26.8 52.8,27 C52.4,27.1 52.2,27.5 52.3,27.9 C52.5,28.1 52.8,28.3 53.1,28.3 Z" id="Shape"></path>
                <path d="M64.7,26.4 L64.8,26.4 L66.6,26.4 L66.6,26.4 C67,26.4 67.3,26.1 67.3,25.7 C67.3,25.3 67,24.9 66.6,24.9 L64.7,24.9 L64.6,24.9 C64.2,24.9 63.9,25.2 63.9,25.6 C63.9,26.1 64.2,26.4 64.7,26.4 Z" id="Shape"></path>
                <path d="M58.8,26.9 L58.9,26.9 C59.5,26.8 60.2,26.7 60.8,26.6 C61.2,26.6 61.5,26.2 61.5,25.8 C61.5,25.4 61.1,25.1 60.7,25.1 C60,25.2 59.4,25.3 58.7,25.4 C58.3,25.5 58,25.8 58.1,26.2 C58.2,26.6 58.5,26.9 58.8,26.9 Z" id="Shape"></path>
                <path d="M102.7,65 C102.7,64.3 102.8,63.7 102.8,63 L102.8,62.9 C102.8,62.5 102.5,62.2 102.1,62.2 C101.7,62.2 101.4,62.5 101.4,62.9 L101.4,63 L101.4,64.9 C101.4,65.3 101.7,65.7 102.1,65.7 L102.1,65.7 C102.4,65.6 102.7,65.3 102.7,65 Z" id="Shape"></path>
                <path d="M99.3,77 L99.6,77 C99.9,77 100.2,76.8 100.3,76.5 C100.5,75.9 100.8,75.3 101,74.6 C101.1,74.2 100.9,73.8 100.5,73.7 C100.1,73.6 99.7,73.8 99.6,74.2 C99.4,74.8 99.2,75.4 99,76 C98.7,76.4 98.9,76.9 99.3,77 Z" id="Shape"></path>
                <path d="M101.2,71.4 C101.5,71.4 101.8,71.2 101.9,70.8 C102,70.2 102.2,69.5 102.3,68.8 C102.4,68.4 102.1,68 101.7,68 C101.3,67.9 100.9,68.2 100.9,68.6 C100.8,69.2 100.7,69.9 100.6,70.5 C100.5,70.9 100.8,71.3 101.2,71.4 C101.1,71.4 101.2,71.4 101.2,71.4 Z" id="Shape"></path>
                <path d="M96.3,43.2 C96.6,43 96.7,42.5 96.5,42.2 C96.1,41.6 95.8,41.1 95.4,40.6 C95.2,40.3 94.7,40.2 94.4,40.4 C94.1,40.6 94,41.1 94.2,41.4 C94.6,41.9 94.9,42.4 95.3,43 C95.4,43.2 95.7,43.3 95.9,43.3 C96.1,43.3 96.2,43.3 96.3,43.2 Z" id="Shape"></path>
                <path d="M90.6,88.8 C90.1,89.3 89.7,89.7 89.2,90.1 C88.9,90.4 88.9,90.8 89.1,91.1 C89.2,91.3 89.4,91.3 89.6,91.3 C89.8,91.3 90,91.2 90.1,91.1 C90.6,90.7 91.1,90.2 91.5,89.7 C91.8,89.4 91.8,88.9 91.5,88.7 C91.2,88.5 90.9,88.5 90.6,88.8 Z" id="Shape"></path>
                <path d="M96.7,82.2 C96.8,82.3 96.9,82.3 97.1,82.3 C97.4,82.3 97.6,82.2 97.7,81.9 C98,81.3 98.3,80.7 98.7,80.2 C98.9,79.8 98.7,79.4 98.4,79.2 C98,79 97.6,79.2 97.4,79.5 C97.1,80.1 96.8,80.6 96.5,81.2 C96.2,81.6 96.3,82 96.7,82.2 Z" id="Shape"></path>
                <path d="M93.7,87.1 C93.9,87.1 94.1,87 94.3,86.8 C94.7,86.3 95.1,85.8 95.5,85.2 C95.7,84.9 95.7,84.4 95.3,84.2 C95,84 94.5,84 94.3,84.4 C93.9,84.9 93.5,85.4 93.1,85.9 C92.8,86.2 92.9,86.7 93.2,86.9 C93.4,87.1 93.6,87.1 93.7,87.1 Z" id="Shape"></path>
                <path d="M100.9,51.1 C100.8,50.7 100.4,50.5 100,50.6 C99.6,50.7 99.4,51.1 99.5,51.5 C99.7,52.1 99.9,52.7 100,53.3 C100.1,53.6 100.4,53.8 100.7,53.8 L100.9,53.8 C101.3,53.7 101.5,53.3 101.4,52.9 C101.3,52.4 101.1,51.7 100.9,51.1 Z" id="Shape"></path>
                <path d="M92.9,38.5 C93.2,38.2 93.2,37.8 93,37.5 C92.6,37 92.1,36.5 91.6,36.1 C91.3,35.8 90.8,35.8 90.6,36.1 C90.3,36.4 90.3,36.9 90.6,37.1 C91.1,37.5 91.5,38 91.9,38.5 C92,38.7 92.2,38.7 92.4,38.7 C92.5,38.7 92.7,38.6 92.9,38.5 Z" id="Shape"></path>
                <path d="M100.8,57.1 C100.9,57.7 101,58.4 101.1,59 C101.1,59.4 101.5,59.7 101.8,59.7 L101.9,59.7 C102.3,59.7 102.6,59.3 102.6,58.9 C102.5,58.2 102.4,57.6 102.3,56.9 C102.2,56.5 101.9,56.2 101.5,56.3 C101,56.3 100.8,56.7 100.8,57.1 Z" id="Shape"></path>
                <path d="M99.1,48.4 C99.5,48.2 99.6,47.8 99.5,47.4 C99.2,46.8 98.9,46.2 98.6,45.6 C98.4,45.2 98,45.1 97.6,45.3 C97.2,45.5 97.1,45.9 97.3,46.3 C97.6,46.9 97.9,47.4 98.1,48 C98.2,48.3 98.5,48.4 98.8,48.4 C98.9,48.4 99,48.4 99.1,48.4 Z" id="Shape"></path>
                <path d="M70.4,26.9 C71,27 71.7,27.1 72.3,27.2 L72.5,27.2 C72.8,27.2 73.1,27 73.2,26.6 C73.3,26.2 73,25.8 72.6,25.7 C72,25.6 71.3,25.4 70.6,25.3 C70.2,25.2 69.8,25.5 69.8,25.9 C69.7,26.4 70,26.8 70.4,26.9 Z" id="Shape"></path>
                <path d="M64.8,99.5 L62.9,99.5 C62.5,99.5 62.1,99.8 62.1,100.2 C62.1,100.6 62.4,101 62.8,101 L64.8,101 L64.8,101 C65.2,101 65.5,100.7 65.5,100.3 C65.5,99.8 65.2,99.5 64.8,99.5 Z" id="Shape"></path>
                <path d="M59.1,99.1 C58.5,99 57.8,98.9 57.2,98.8 C56.8,98.7 56.4,99 56.3,99.4 C56.2,99.8 56.5,100.2 56.9,100.3 C57.5,100.4 58.2,100.6 58.9,100.7 L59,100.7 C59.4,100.7 59.7,100.4 59.7,100.1 C59.8,99.5 59.5,99.1 59.1,99.1 Z" id="Shape"></path>
                <path d="M53.5,97.7 C52.9,97.5 52.3,97.3 51.7,97.1 C51.3,97 50.9,97.1 50.8,97.5 C50.7,97.9 50.8,98.3 51.2,98.5 C51.8,98.7 52.4,99 53.1,99.2 L53.3,99.2 C53.6,99.2 53.9,99 54,98.7 C54.1,98.3 53.9,97.9 53.5,97.7 Z" id="Shape"></path>
                <path d="M48.2,95.5 C47.6,95.2 47.1,94.9 46.5,94.6 C46.1,94.4 45.7,94.5 45.5,94.9 C45.3,95.3 45.4,95.7 45.8,95.9 C46.4,96.2 47,96.5 47.6,96.8 C47.7,96.9 47.8,96.9 47.9,96.9 C48.2,96.9 48.4,96.8 48.6,96.5 C48.7,96.2 48.6,95.7 48.2,95.5 Z" id="Shape"></path>
                <path d="M41.8,91.4 C41.5,91.1 41,91.2 40.8,91.5 C40.5,91.8 40.6,92.3 40.9,92.5 C41.4,92.9 41.9,93.3 42.5,93.7 C42.6,93.8 42.8,93.8 42.9,93.8 C43.1,93.8 43.4,93.7 43.5,93.5 C43.7,93.2 43.7,92.7 43.3,92.5 C42.8,92.2 42.3,91.8 41.8,91.4 Z" id="Shape"></path>
                <path d="M40.3,34.8 C40,34.5 39.6,34.5 39.3,34.7 C38.8,35.1 38.3,35.6 37.9,36.1 C37.6,36.4 37.6,36.9 37.9,37.1 C38,37.2 38.2,37.3 38.4,37.3 C38.6,37.3 38.8,37.2 38.9,37.1 C39.4,36.6 39.8,36.2 40.3,35.8 C40.6,35.6 40.6,35.1 40.3,34.8 Z" id="Shape"></path>
                <path d="M70.5,99 C69.9,99.1 69.2,99.2 68.6,99.2 C68.2,99.2 67.9,99.6 67.9,100 C67.9,100.4 68.3,100.7 68.6,100.7 L68.7,100.7 C69.4,100.6 70,100.5 70.7,100.4 C71.1,100.3 71.4,100 71.3,99.6 C71.3,99.3 70.9,99 70.5,99 Z" id="Shape"></path>
                <path d="M86.2,92.5 C85.7,92.9 85.2,93.2 84.6,93.6 C84.3,93.8 84.2,94.3 84.4,94.6 C84.5,94.8 84.8,94.9 85,94.9 C85.1,94.9 85.3,94.9 85.4,94.8 C86,94.4 86.5,94.1 87,93.7 C87.3,93.5 87.4,93 87.2,92.7 C87,92.3 86.6,92.3 86.2,92.5 Z" id="Shape"></path>
                <path d="M88.7,34.4 C89,34.1 88.9,33.6 88.6,33.4 C88.1,33 87.6,32.6 87,32.2 C86.7,32 86.2,32 86,32.4 C85.8,32.7 85.8,33.2 86.2,33.4 C86.7,33.8 87.2,34.2 87.7,34.6 C87.8,34.7 88,34.8 88.2,34.8 C88.3,34.7 88.5,34.6 88.7,34.4 Z" id="Shape"></path>
                <path d="M81.4,95.5 C80.8,95.8 80.3,96.1 79.7,96.3 C79.3,96.5 79.2,96.9 79.3,97.3 C79.4,97.6 79.7,97.7 80,97.7 C80.1,97.7 80.2,97.7 80.3,97.6 C80.9,97.3 81.5,97 82.1,96.7 C82.5,96.5 82.6,96.1 82.4,95.7 C82.2,95.5 81.7,95.3 81.4,95.5 Z" id="Shape"></path>
                <path d="M76.1,97.7 C75.5,97.9 74.9,98.1 74.3,98.2 C73.9,98.3 73.7,98.7 73.8,99.1 C73.9,99.4 74.2,99.6 74.5,99.6 L74.7,99.6 C75.3,99.4 76,99.2 76.6,99 C77,98.9 77.2,98.5 77.1,98.1 C76.9,97.8 76.5,97.6 76.1,97.7 Z" id="Shape"></path>
                <path d="M29.1,52.2 L29.3,52.2 C29.6,52.2 29.9,52 30,51.7 C30.2,51.1 30.4,50.5 30.6,49.9 C30.7,49.5 30.6,49.1 30.2,48.9 C29.8,48.8 29.4,48.9 29.2,49.3 C29,49.9 28.7,50.5 28.5,51.2 C28.5,51.7 28.7,52.1 29.1,52.2 Z" id="Shape"></path>
                <path d="M37.9,89.9 C38,90 38.2,90.1 38.4,90.1 C38.6,90.1 38.8,90 38.9,89.9 C39.2,89.6 39.2,89.1 38.9,88.9 C38.4,88.4 38,88 37.6,87.5 C37.3,87.2 36.9,87.2 36.6,87.4 C36.3,87.7 36.3,88.1 36.5,88.4 C37,88.9 37.5,89.4 37.9,89.9 Z" id="Shape"></path>
                <path d="M26.8,61.1 L26.8,63 L26.8,63 C26.8,63.4 27.1,63.7 27.5,63.7 C27.9,63.7 28.2,63.3 28.2,62.9 L28.2,61.1 C28.2,60.7 27.9,60.3 27.5,60.3 C27.2,60.3 26.8,60.6 26.8,61.1 Z" id="Shape"></path>
                <path d="M27.6,55.1 C27.5,55.7 27.3,56.4 27.2,57.1 C27.1,57.5 27.4,57.9 27.8,57.9 L27.9,57.9 C28.3,57.9 28.6,57.6 28.6,57.3 C28.7,56.7 28.8,56 28.9,55.4 C29,55 28.7,54.6 28.3,54.5 C28,54.5 27.7,54.7 27.6,55.1 Z" id="Shape"></path>
                <path d="M28,69.6 L28.1,69.6 C28.5,69.5 28.8,69.2 28.7,68.8 C28.6,68.2 28.5,67.5 28.5,66.9 C28.5,66.5 28.1,66.2 27.7,66.2 C27.3,66.2 27,66.6 27,67 C27.1,67.7 27.2,68.3 27.3,69 C27.3,69.3 27.6,69.6 28,69.6 Z" id="Shape"></path>
                <path d="M42.8,33.6 C43,33.6 43.1,33.6 43.2,33.5 C43.7,33.1 44.2,32.8 44.8,32.4 C45.1,32.2 45.2,31.7 45,31.4 C44.8,31.1 44.3,31 44,31.2 C43.4,31.6 42.9,31.9 42.4,32.3 C42.1,32.5 42,33 42.2,33.3 C42.3,33.5 42.6,33.6 42.8,33.6 Z" id="Shape"></path>
                <path d="M47.8,30.5 C47.9,30.5 48,30.5 48.1,30.4 C48.7,30.1 49.2,29.8 49.8,29.6 C50.2,29.4 50.3,29 50.2,28.6 C50,28.2 49.6,28.1 49.2,28.2 L47.4,29.1 C47,29.3 46.9,29.7 47.1,30.1 C47.2,30.4 47.5,30.5 47.8,30.5 Z" id="Shape"></path>
                <path d="M28.6,74.8 C28.7,75.1 29,75.3 29.3,75.3 L29.5,75.3 C29.9,75.2 30.1,74.8 30,74.4 C29.8,73.8 29.6,73.2 29.5,72.6 C29.4,72.2 29,72 28.6,72.1 C28.2,72.2 28,72.6 28.1,73 C28.2,73.5 28.4,74.1 28.6,74.8 Z" id="Shape"></path>
                <path d="M34,85.3 C34.1,85.5 34.4,85.6 34.6,85.6 C34.8,85.6 34.9,85.6 35,85.5 C35.3,85.3 35.4,84.8 35.2,84.5 C34.8,84 34.5,83.5 34.1,82.9 C33.9,82.6 33.4,82.5 33.1,82.7 C32.8,82.9 32.7,83.4 32.9,83.7 C33.3,84.3 33.7,84.8 34,85.3 Z" id="Shape"></path>
                <path d="M36.2,39 C35.9,38.7 35.4,38.8 35.2,39.1 C34.8,39.6 34.4,40.1 34,40.7 C33.8,41 33.8,41.5 34.2,41.7 C34.3,41.8 34.5,41.8 34.6,41.8 C34.8,41.8 35.1,41.7 35.2,41.5 C35.6,41 36,40.5 36.4,40 C36.6,39.7 36.5,39.3 36.2,39 Z" id="Shape"></path>
                <path d="M30.9,80.3 C31,80.6 31.3,80.7 31.6,80.7 C31.7,80.7 31.8,80.7 31.9,80.6 C32.3,80.4 32.4,80 32.2,79.6 C31.9,79 31.6,78.5 31.4,77.9 C31.2,77.5 30.8,77.4 30.4,77.5 C30,77.7 29.9,78.1 30,78.5 C30.3,79.1 30.6,79.7 30.9,80.3 Z" id="Shape"></path>
                <path d="M32.8,43.8 C32.4,43.6 32,43.7 31.8,44.1 L30.9,45.9 C30.7,46.3 30.9,46.7 31.2,46.9 C31.3,47 31.4,47 31.5,47 C31.8,47 32,46.9 32.2,46.6 C32.5,46 32.8,45.5 33.1,44.9 C33.3,44.4 33.2,44 32.8,43.8 Z" id="Shape"></path>
            </g>
        </g>
    </g>
</svg>